<svg width="13" height="20" viewBox="0 0 13 20" fill="none" xmlns="http://www.w3.org/2000/svg">
<g clip-path="url(#clip0_251_14)">
<path d="M6.5 10.0001C6.5 9.11603 6.84241 8.26818 7.4519 7.64306C8.0614 7.01794 8.88805 6.66675 9.75 6.66675C10.612 6.66675 11.4386 7.01794 12.0481 7.64306C12.6576 8.26818 13 9.11603 13 10.0001C13 10.8841 12.6576 11.732 12.0481 12.3571C11.4386 12.9822 10.612 13.3334 9.75 13.3334C8.88805 13.3334 8.0614 12.9822 7.4519 12.3571C6.84241 11.732 6.5 10.8841 6.5 10.0001V10.0001Z" fill="white"/>
<path d="M0 16.6666C0 15.7825 0.34241 14.9347 0.951903 14.3096C1.5614 13.6844 2.38805 13.3333 3.25 13.3333H6.5V16.6666C6.5 17.5506 6.15759 18.3985 5.5481 19.0236C4.9386 19.6487 4.11195 19.9999 3.25 19.9999C2.38805 19.9999 1.5614 19.6487 0.951903 19.0236C0.34241 18.3985 0 17.5506 0 16.6666H0Z" fill="white"/>
<path d="M6.5 0V6.66667H9.75C10.612 6.66667 11.4386 6.31548 12.0481 5.69036C12.6576 5.06523 13 4.21739 13 3.33333C13 2.44928 12.6576 1.60143 12.0481 0.976311C11.4386 0.351189 10.612 0 9.75 0L6.5 0Z" fill="white"/>
<path d="M0 3.33333C0 4.21739 0.34241 5.06523 0.951903 5.69036C1.5614 6.31548 2.38805 6.66667 3.25 6.66667H6.5V0H3.25C2.38805 0 1.5614 0.351189 0.951903 0.976311C0.34241 1.60143 0 2.44928 0 3.33333H0Z" fill="white"/>
<path d="M0 10.0001C0 10.8841 0.34241 11.732 0.951903 12.3571C1.5614 12.9822 2.38805 13.3334 3.25 13.3334H6.5V6.66675H3.25C2.38805 6.66675 1.5614 7.01794 0.951903 7.64306C0.34241 8.26818 0 9.11603 0 10.0001H0Z" fill="white"/>
</g>
<defs>
<clipPath id="clip0_251_14">
<rect width="13" height="20" fill="white"/>
</clipPath>
</defs>
</svg>
